<svg id="a11yinsights" width="28" height="28" viewBox="0 0 20 19" fill="none" xmlns="http://www.w3.org/2000/svg">
<mask id="mask0" mask-type="alpha" maskUnits="userSpaceOnUse" x="0" y="1" width="20" height="18">
<path d="M17.5909 10.7423C19.7918 8.57159 19.7918 5.05217 17.5909 2.88145C15.39 0.710739 11.8216 0.710739 9.62077 2.88145C7.41988 0.71074 3.85155 0.710739 1.65066 2.88145C-0.550221 5.05217 -0.550221 8.57159 1.65066 10.7423L8.82376 17.8171C9.26393 18.2512 9.9776 18.2512 10.4178 17.8171L17.5909 10.7423Z" fill="white"/>
</mask>
<g mask="url(#mask0)">
<path d="M17.5909 10.7423C19.7918 8.57159 19.7918 5.05217 17.5909 2.88145C15.39 0.71074 11.8216 0.710739 9.62077 2.88145C7.41988 0.71074 3.85155 0.71074 1.65066 2.88145C-0.550221 5.05217 -0.550221 8.57159 1.65066 10.7423L8.82376 17.8171C9.26393 18.2512 9.9776 18.2512 10.4178 17.8171L17.5909 10.7423Z" fill="currentColor"/>
<rect width="5.6181" height="16.8496" transform="matrix(0.71197 0.70221 -0.71197 0.70221 17.6385 2.86816)" fill="currentColor"/>
<mask id="mask1" mask-type="alpha" maskUnits="userSpaceOnUse" x="-1" y="1" width="11" height="10">
<path d="M9.62062 2.88085L1.65052 10.7417C-0.550364 8.57099 -0.550365 5.05157 1.65052 2.88085C3.8514 0.710141 7.41974 0.710141 9.62062 2.88085Z" fill="currentColor"/>
<path d="M9.62062 2.88085L1.65052 10.7417C-0.550364 8.57099 -0.550365 5.05157 1.65052 2.88085C3.8514 0.710141 7.41974 0.710141 9.62062 2.88085Z" fill="url(#paint0_linear)"/>
</mask>
<g mask="url(#mask1)">
<path d="M9.62062 2.88085L1.65052 10.7417C-0.550364 8.57099 -0.550364 5.05157 1.65052 2.88085C3.8514 0.710141 7.41974 0.710141 9.62062 2.88085Z" fill="currentColor"/>
<path d="M9.62062 2.88085L1.65052 10.7417C-0.550364 8.57099 -0.550364 5.05157 1.65052 2.88085C3.8514 0.710141 7.41974 0.710141 9.62062 2.88085Z" fill="url(#paint1_linear)"/>
<rect width="6.52006" height="16.8496" transform="matrix(0.71197 -0.70221 0.71197 0.70221 1.82523 2.72388)" fill="currentColor"/>
<rect width="6.52006" height="16.8496" transform="matrix(0.71197 -0.70221 0.71197 0.70221 1.82523 2.72388)" fill="url(#paint2_linear)"/>
</g>
<g filter="url(#filter0_d)">
<path fill-rule="evenodd" clip-rule="evenodd" d="M13.6759 10.6796C15.8921 10.6765 17.6861 8.90206 17.6829 6.71627C17.6798 4.53048 15.8807 2.76105 13.6646 2.76414C11.4484 2.76722 9.65438 4.54165 9.6575 6.72743C9.65871 7.57167 9.92784 8.35379 10.3854 8.99566L9.32769 10.0423C9.12454 10.0483 8.92323 10.1279 8.76842 10.2811L6.5018 12.5238C6.38139 12.643 6.3817 12.8358 6.50249 12.9546L7.23302 13.6728C7.35381 13.7915 7.54934 13.7912 7.66974 13.6721L9.93637 11.4293C10.0913 11.276 10.1714 11.0769 10.1767 10.8764L11.213 9.85097C11.8934 10.3715 12.7481 10.6809 13.6759 10.6796ZM13.6596 9.31956C15.1141 9.32535 16.2981 8.16704 16.304 6.7324C16.3098 5.29775 15.1354 4.13005 13.6808 4.12425C12.2262 4.11846 11.0423 5.27677 11.0364 6.71142C11.0306 8.14606 12.205 9.31377 13.6596 9.31956Z" fill="var(--color-background)"/>
</g>
</g>
<defs>
<filter id="filter0_d" x="6.02603" y="2.72061" width="12.0378" height="11.7448" filterUnits="userSpaceOnUse" color-interpolation-filters="sRGB">
<feFlood flood-opacity="0" result="BackgroundImageFix"/>
<feColorMatrix in="SourceAlpha" type="matrix" values="0 0 0 0 0 0 0 0 0 0 0 0 0 0 0 0 0 0 127 0"/>
<feOffset dy="0.332615"/>
<feGaussianBlur stdDeviation="0.184786"/>
<feColorMatrix type="matrix" values="0 0 0 0 0 0 0 0 0 0.027451 0 0 0 0 0.0470588 0 0 0 0.3 0"/>
<feBlend mode="normal" in2="BackgroundImageFix" result="effect1_dropShadow"/>
<feBlend mode="normal" in="SourceGraphic" in2="effect1_dropShadow" result="shape"/>
</filter>
<linearGradient id="paint0_linear" x1="5.74564" y1="6.67917" x2="2.42525" y2="3.21362" gradientUnits="userSpaceOnUse">
<stop stop-color="#073A5F" stop-opacity="0.3"/>
<stop offset="1" stop-color="#CFEBFF" stop-opacity="0"/>
</linearGradient>
<linearGradient id="paint1_linear" x1="5.74564" y1="6.67917" x2="1.82453" y2="2.6599" gradientUnits="userSpaceOnUse">
<stop stop-color="#00070C" stop-opacity="0.29"/>
<stop offset="1" stop-color="#004880" stop-opacity="0"/>
</linearGradient>
<linearGradient id="paint2_linear" x1="2.6983" y1="5.26955" x2="2.68588" y2="0.0909673" gradientUnits="userSpaceOnUse">
<stop stop-color="#00070C" stop-opacity="0.29"/>
<stop offset="1" stop-color="#003064" stop-opacity="0"/>
</linearGradient>
</defs>
</svg>
