<svg id="axe" xmlns="http://www.w3.org/2000/svg" viewBox="0 0 64 64" width="38" height="38">
  <g fill="currentColor">
    <path d="M49.4 54.5 c-0.5 -1.3 -3.9 -1.5 -22 -1.5 l-21.4 0 2.3 -3.7 c1.3 -2.1 3.5 -5.8 4.9 -8.3 7 -12.6 18 -31.5 18.7 -32.2 0.5 -0.6 17.2 27 17.9 29.8 0.2 0.6 -0.3 1.4 -1.1 1.7 -1 0.4 -3.7 -3.5 -8.9 -12.4 l-7.6 -13 -5.8 10.3 c-3.2 5.7 -7.5 13.1 -9.6 16.6 -2.1 3.4 -3.8 6.5 -3.8 6.7 0 0.3 8 0.5 17.7 0.5 15.3 0 17.9 -0.2 19.5 -1.7 1.8 -1.6 2.2 -1.6 4.6 -0.2 3.3 1.8 4.1 5.5 1.5 7.4 -2.4 1.9 -6.2 1.9 -6.9 0z m5.4 -3.2 c-0.2 -1 -1 -1.8 -1.8 -1.8 -0.8 0 -1.6 0.8 -1.8 1.8 -0.2 1.2 0.3 1.7 1.8 1.7 1.5 0 2 -0.5 1.8 -1.7z"></path>
    <path d="M22.1 45.1 c-2.5 -2.5 -2.6 -3.9 -0.6 -6.8 1.2 -1.8 2.5 -2.2 6 -2.1 l4.5 0.1 0 4.3 c0 4.7 -0.1 4.9 -4.7 5.8 -2.5 0.6 -3.6 0.3 -5.2 -1.3z m6.7 -3.7 c0.3 -2.3 -1.8 -3.7 -4.3 -2.8 -1.6 0.6 -2 3.5 -0.8 4.8 1.4 1.4 4.8 0.1 5.1 -2z"></path>
    <path d="M34.6 43.5 c1.5 -2.3 1.5 -2.7 0 -5 -1.6 -2.4 -1.5 -2.5 0.3 -2.5 1.1 0 2.1 0.6 2.4 1.3 0.4 1 0.7 1 1.8 0 0.7 -0.7 1.9 -1.3 2.6 -1.3 1 0 1 0.5 -0.2 2.4 -1.5 2.3 -1.5 2.7 0 5 1.4 2.1 1.5 2.6 0.3 2.6 -0.8 0 -2 -0.6 -2.7 -1.2 -1.1 -1 -1.4 -1 -1.8 0 -0.3 0.6 -1.3 1.2 -2.4 1.2 -1.8 0 -1.9 -0.1 -0.3 -2.5z"></path>
  </g>
</svg>
