<svg width="36" height="36" viewBox="0 0 36 36" fill="none" xmlns="http://www.w3.org/2000/svg">
<path d="M13.5 15C13.2 16.5 12.45 17.55 11.25 18.75C9.75 20.1 9 22.05 9 24C9 26.3869 9.94821 28.6761 11.636 30.364C13.3239 32.0518 15.6131 33 18 33C20.3869 33 22.6761 32.0518 24.364 30.364C26.0518 28.6761 27 26.3869 27 24C27 22.5 26.7 20.7 24.75 18.75C23.7 17.7 22.8 16.5 22.5 15" stroke="currentColor" stroke-width="2" stroke-linecap="round" stroke-linejoin="round"/>
<path d="M22.5 9L13.5 9" stroke="currentColor" stroke-width="2" stroke-linecap="round" stroke-linejoin="round"/>
<path d="M21 3L15 3" stroke="currentColor" stroke-width="2" stroke-linecap="round" stroke-linejoin="round"/>
</svg>
