<svg width="74" height="68" viewBox="0 0 74 68" fill="none" xmlns="http://www.w3.org/2000/svg">
<path d="M23.21 48.3699H16.35C13.4087 48.3699 10.588 47.2015 8.50819 45.1217C6.42841 43.042 5.26 40.2212 5.26 37.2799C5.26 34.3387 6.42841 31.5179 8.50819 29.4381C10.588 27.3583 13.4087 26.1899 16.35 26.1899C17.0475 26.1899 17.7165 25.9128 18.2097 25.4196C18.7029 24.9264 18.98 24.2575 18.98 23.5599C18.98 22.8624 18.7029 22.1935 18.2097 21.7002C17.7165 21.207 17.0475 20.9299 16.35 20.9299C12.0137 20.9299 7.85502 22.6525 4.7888 25.7187C1.72258 28.785 0 32.9436 0 37.2799C0 41.6162 1.72258 45.7749 4.7888 48.8411C7.85502 51.9073 12.0137 53.6299 16.35 53.6299H23.21C26.1504 53.6326 28.9697 54.8018 31.0489 56.881C33.1281 58.9602 34.2974 61.7795 34.3 64.7199C34.3 65.4175 34.5771 66.0864 35.0703 66.5796C35.5635 67.0728 36.2325 67.3499 36.93 67.3499C37.6275 67.3499 38.2965 67.0728 38.7897 66.5796C39.2829 66.0864 39.56 65.4175 39.56 64.7199C39.5547 60.3853 37.8304 56.2297 34.7654 53.1646C31.7003 50.0995 27.5447 48.3752 23.21 48.3699Z" fill="currentColor"/>
<path d="M57.51 20.93C54.8628 20.9304 52.2551 21.572 49.91 22.8C46.114 24.8304 42.1241 26.4753 38 27.71C36.7958 28.0742 35.5182 28.1225 34.29 27.85C31.5744 27.2181 29.1831 25.6163 27.5653 23.3456C25.9475 21.0748 25.2147 18.2914 25.5045 15.5184C25.7944 12.7454 27.0869 10.1737 29.1392 8.28653C31.1916 6.39936 33.8625 5.32665 36.65 5.26998C38.1749 5.23264 39.6918 5.50063 41.1116 6.05818C42.5314 6.61573 43.8253 7.45158 44.9173 8.51656C46.0093 9.58154 46.8773 10.8541 47.4703 12.2595C48.0632 13.6649 48.3691 15.1746 48.37 16.7C48.37 17.3975 48.6471 18.0664 49.1403 18.5597C49.6335 19.0529 50.3025 19.33 51 19.33C51.6975 19.33 52.3665 19.0529 52.8597 18.5597C53.3529 18.0664 53.63 17.3975 53.63 16.7C53.6311 14.0383 52.9959 11.4149 51.7775 9.04841C50.559 6.68196 48.7926 4.64103 46.6254 3.09575C44.4582 1.55046 41.953 0.545584 39.3186 0.164875C36.6843 -0.215835 33.9971 0.0386531 31.4811 0.907125C28.965 1.7756 26.693 3.23289 24.8544 5.15755C23.0158 7.0822 21.6639 9.41844 20.9114 11.9716C20.1588 14.5247 20.0274 17.2207 20.5282 19.8349C21.0289 22.449 22.1473 24.9057 23.79 27C26.1313 30.0029 29.4255 32.1191 33.13 33C35.2435 33.4773 37.4443 33.4015 39.52 32.78C43.966 31.4458 48.2674 29.6703 52.36 27.48C53.9483 26.6464 55.7163 26.2138 57.51 26.22C60.4512 26.22 63.272 27.3884 65.3518 29.4682C67.4316 31.5479 68.6 34.3687 68.6 37.31C68.6 40.2512 67.4316 43.072 65.3518 45.1518C63.272 47.2316 60.4512 48.4 57.51 48.4H50.65C47.7783 48.399 44.957 49.1543 42.47 50.59C42.1706 50.7627 41.9081 50.9926 41.6976 51.2668C41.487 51.5409 41.3326 51.8538 41.2429 52.1876C41.062 52.8618 41.1562 53.5803 41.505 54.185C41.8538 54.7897 42.4284 55.2311 43.1026 55.412C43.7768 55.593 44.4953 55.4987 45.1 55.15C46.7848 54.1791 48.6955 53.6686 50.64 53.67H57.5C59.6471 53.67 61.7732 53.2471 63.7569 52.4254C65.7405 51.6037 67.543 50.3994 69.0612 48.8812C70.5794 47.3629 71.7838 45.5605 72.6054 43.5769C73.4271 41.5932 73.85 39.4671 73.85 37.32C73.85 35.1729 73.4271 33.0468 72.6054 31.0631C71.7838 29.0794 70.5794 27.277 69.0612 25.7588C67.543 24.2405 65.7405 23.0362 63.7569 22.2145C61.7732 21.3929 59.6471 20.97 57.5 20.97L57.51 20.93Z" fill="currentColor"/>
</svg>
