<svg id="wave" xmlns="http://www.w3.org/2000/svg" viewBox="0 0 64 64" width="28" height="28">
  <circle cx="32" cy="32" r="32" fill="currentColor"></circle>
  <path fill="var(--color-background)" d="M12.8 49.5 c-1.8 -1 -3.3 -3.3 -4.7 -7 -1.2 -3.1 -2.1 -6 -2.1 -6.6 0 -0.5 -0.9 -3.7 -2 -7 -2 -5.8 -1.9 -9.9 0.1 -9.9 1.3 0 4.3 7 7.4 17.3 2 6.9 3 8.7 4.4 8.7 2 0 3.1 -2.3 5.6 -11.5 2.7 -9.9 4.6 -13.7 7.9 -15 5.8 -2.5 9.8 1.8 12.6 13.5 2.1 8.4 4.2 13 6 13 2 0 3.1 -2.4 5.9 -12.6 2.1 -7.7 4.6 -13.4 6.1 -13.4 2 0 2 4.2 0 10.1 -1.1 3.4 -2 6.6 -2 7 0 0.5 -0.9 3.3 -2.1 6.4 -4 10.6 -11.8 10.8 -15.7 0.3 -1.1 -2.9 -2.3 -6.9 -2.7 -8.8 -1.4 -6.5 -3.6 -11 -5.5 -11 -1.9 0 -3 2.2 -5.6 11.5 -2.8 10.1 -4.5 13.5 -7.5 15 -3.3 1.8 -2.8 1.8 -6.1 0z"></path>
</svg>
