<svg id="flux" viewBox="0 0 34 48" fill="none" xmlns="http://www.w3.org/2000/svg">
<path fill-rule="evenodd" clip-rule="evenodd" d="M1.2211 12.8899C0.401236 12.3567 0.401236 11.1565 1.2211 10.6237L16.3608 0.780874C16.8088 0.489709 17.3862 0.489709 17.8342 0.780874L32.9744 10.6237C33.7943 11.1565 33.7943 12.3567 32.9744 12.8899L17.8342 22.7328C17.3862 23.024 16.8088 23.024 16.3608 22.7328L1.2211 12.8899Z" fill="currentColor"/>
<path fill-rule="evenodd" clip-rule="evenodd" d="M19.4882 14.6268H20.5384C21.1518 14.6268 21.5354 13.9629 21.2285 13.4319L17.7877 7.47205C17.4812 6.9411 16.7145 6.9411 16.4076 7.47205L12.9668 13.4319C12.6603 13.9629 13.0434 14.6268 13.6568 14.6268H14.7074C15.1473 14.6268 15.5039 14.9838 15.5039 15.4237V22.2264L16.2088 22.6848C16.7492 23.0364 17.446 23.0364 17.9864 22.6848L18.6914 22.2264V15.4237C18.6914 14.9838 19.0479 14.6268 19.4882 14.6268Z" fill="var(--color-grey300)"/>
<path fill-rule="evenodd" clip-rule="evenodd" d="M22.3429 27.7793L18.6912 25.4054V26.5304C19.8829 27.0406 21.1084 27.4381 22.3429 27.7793Z" fill="currentColor"/>
<path fill-rule="evenodd" clip-rule="evenodd" d="M18.6914 28.5531V30.1325C19.898 30.5007 21.119 30.8031 22.3274 31.1011C26.2739 32.0742 30.0014 32.9927 32.9986 35.9905C33.151 36.1424 33.2939 36.2974 33.4354 36.4529C33.7428 35.8656 33.5886 35.0904 32.9739 34.6911L27.0437 30.8351C25.6041 30.3601 24.1375 29.9968 22.688 29.6398C21.3209 29.3027 19.9841 28.9664 18.6914 28.5531Z" fill="currentColor"/>
<path fill-rule="evenodd" clip-rule="evenodd" d="M15.504 27.2578C14.9925 26.9936 14.4885 26.7101 14.0022 26.382L12.646 27.2636C13.5605 27.9361 14.5183 28.4815 15.504 28.9385V27.2578Z" fill="currentColor"/>
<path fill-rule="evenodd" clip-rule="evenodd" d="M20.0422 32.2853C19.5888 32.1735 19.1385 32.0622 18.6914 31.9481V33.5004C19.0222 33.5833 19.3526 33.6658 19.6816 33.7469C23.6282 34.7196 27.3556 35.6382 30.3534 38.6359C30.3583 38.6413 30.3628 38.6463 30.3682 38.6517L31.6501 37.8179C31.5721 37.7363 31.4986 37.6524 31.4175 37.5718C28.1236 34.2774 24.0149 33.2647 20.0422 32.2853Z" fill="currentColor"/>
<path fill-rule="evenodd" clip-rule="evenodd" d="M15.504 31.024C13.789 30.4367 12.1637 29.6808 10.6809 28.541L9.35303 29.4045C11.2411 30.9618 13.3433 31.9065 15.504 32.6069V31.024Z" fill="currentColor"/>
<path fill-rule="evenodd" clip-rule="evenodd" d="M15.5041 34.4539C12.5523 33.6805 9.77635 32.7357 7.40465 30.671L6.09937 31.5197C8.88482 34.0861 12.1985 35.1588 15.5041 36.0084V34.4539Z" fill="currentColor"/>
<path fill-rule="evenodd" clip-rule="evenodd" d="M18.6914 36.8074C21.7793 37.6047 24.6828 38.558 27.1424 40.7485L28.4405 39.9048C25.5667 37.2032 22.1182 36.1246 18.6914 35.2538V36.8074Z" fill="currentColor"/>
<path fill-rule="evenodd" clip-rule="evenodd" d="M4.17073 32.7734L2.88257 33.6108C2.92764 33.6572 2.96866 33.7055 3.01508 33.7514C6.3094 37.0458 10.4173 38.0585 14.3904 39.038C17.8312 39.8858 21.1048 40.6944 23.874 42.8736L25.1946 42.015C22.0747 39.3882 18.3581 38.4655 14.751 37.5767C10.8441 36.6135 7.1527 35.6999 4.17073 32.7734Z" fill="currentColor"/>
<path fill-rule="evenodd" clip-rule="evenodd" d="M1.43393 35.3329C1.28384 35.1828 1.14276 35.03 1.00304 34.8763C0.415752 35.4645 0.484712 36.4786 1.22119 36.9573L5.67927 39.8559C7.65253 40.6726 9.71593 41.1833 11.7451 41.6836C14.9127 42.4642 17.9389 43.2128 20.5607 45.0279L21.9088 44.1508C18.9278 41.9098 15.4689 41.0512 12.1052 40.2219C8.15914 39.2492 4.43168 38.3306 1.43393 35.3329Z" fill="currentColor"/>
<path fill-rule="evenodd" clip-rule="evenodd" d="M15.9407 46.5268C16.2377 46.671 16.5312 46.8229 16.8196 46.9861C17.1635 47.0586 17.5291 46.9987 17.8346 46.7999L18.5828 46.3136C16.1791 44.7059 13.5068 43.8914 10.8435 43.2131L15.9407 46.5268Z" fill="currentColor"/>
</svg>
